<?xml version="1.0" encoding="UTF-8"?>
<svg width="36px" height="36px" viewBox="0 0 108 108" xmlns="http://www.w3.org/2000/svg">
	<g transform="translate(0.000000,108.000000) scale(0.040000,-0.040000)" stroke="none" fill="none" fill-rule="evenodd">
		<path d="M615 2144 c-73 -115 -97 -255 -71 -408 19 -112 17 -163 -10 -227 -19
-45 -34 -121 -34 -169 0 -77 -9 -88 -81 -103 -107 -22 -194 -79 -194 -126 0
-58 68 -71 179 -35 85 28 103 28 123 -3 34 -54 30 -60 -66 -106 -69 -33 -88
-56 -81 -99 8 -61 41 -64 159 -17 71 29 84 25 210 -71 76 -57 209 -125 306
-157 328 -105 748 -26 964 183 l81 78 89 -42 c99 -48 136 -38 136 35 0 31 -31
64 -84 89 -64 31 -82 52 -72 89 10 39 27 46 78 35 200 -46 227 -47 243 -5 24
62 -30 108 -166 143 -103 26 -124 41 -124 89 0 31 -18 102 -40 158 -33 83 -36
121 -13 211 15 61 28 148 27 194 0 108 -86 295 -135 295 -64 0 -246 -79 -344
-150 -87 -62 -102 -65 -218 -41 -86 17 -160 17 -243 -2 -115 -27 -123 -25
-206 48 -88 77 -183 125 -308 154 -54 13 -76 5 -105 -40z m490 -758 c46 -100
0 -198 -92 -198 -58 0 -79 14 -98 67 -34 97 15 195 98 195 43 0 72 -20 92 -64z
m675 0 c46 -100 0 -198 -92 -198 -58 0 -79 14 -98 67 -34 97 15 195 98 195 43
0 72 -20 92 -64z m-308 -334 c95 -60 -76 -181 -185 -131 -137 62 -100 153 63
153 48 0 103 -10 122 -22z" fill="#FFFFFF"></path>
	</g>
</svg>
