<?xml version="1.0" encoding="UTF-8"?>
<svg width="36px" height="36px" viewBox="0 0 108 108" xmlns="http://www.w3.org/2000/svg">
	<g transform="translate(0.000000,108.000000) scale(0.040000,-0.040000)" stroke="none" fill="none" fill-rule="evenodd">
		<path d="M1580 2229 c-17 -11 -75 -94 -128 -185 -52 -90 -163 -252 -245 -360
-183 -240 -226 -323 -257 -485 -56 -293 98 -552 377 -635 165 -49 496 -51 609
-4 83 35 132 115 101 165 -8 14 9 56 38 93 40 51 50 88 38 148 -8 47 -3 87 12
97 15 9 26 69 24 133 -1 64 5 148 15 186 30 123 -39 168 -257 168 -102 0 -207
12 -234 26 -66 35 -61 132 15 319 72 178 78 261 23 316 -44 43 -82 49 -131 18z" fill="#FFFFFF"></path>
		<path d="M721 1487 c-39 -21 -96 -95 -135 -175 -79 -162 -78 -341 5 -500 69
-134 157 -192 313 -207 l133 -12 -78 89 c-44 49 -93 131 -109 182 -44 131 -20
399 46 529 30 58 54 111 54 119 0 27 -165 10 -229 -25z" fill="#FFFFFF"></path>
	</g>
</svg>
