<?xml version="1.0" encoding="UTF-8"?>
<svg width="36px" height="36px" viewBox="0 0 108 108" xmlns="http://www.w3.org/2000/svg">
	<g transform="translate(0.000000,108.000000) scale(0.040000,-0.040000)" stroke="none" fill="none" fill-rule="evenodd">
		<path d="M1117 2189 c-160 -57 -271 -171 -328 -337 -75 -215 -45 -369 119
-613 72 -107 103 -182 112 -269 l12 -121 315 7 316 7 12 125 c10 95 40 162
125 282 101 142 112 173 121 329 16 289 -76 459 -307 567 -145 67 -346 77
-497 23z" fill="#FFFFFF"></path>
		<path d="M1042 758 c-31 -31 -17 -103 23 -118 21 -8 155 -15 296 -15 269 0
332 23 299 109 -13 35 -61 41 -309 41 -161 0 -300 -7 -309 -17z" fill="#FFFFFF"></path>
		<path d="M1166 537 c36 -93 246 -120 318 -41 22 25 41 53 41 62 0 9 -84 17
-187 17 -157 0 -184 -6 -172 -38z" fill="#FFFFFF"></path>
	</g>
</svg>
