<?xml version="1.0" encoding="UTF-8"?>
<svg width="36px" height="36px" viewBox="0 0 108 108" xmlns="http://www.w3.org/2000/svg">
	<g transform="translate(0.000000,108.000000) scale(0.040000,-0.040000)" stroke="none" fill="none" fill-rule="evenodd">
		<path d="M598 1952 c-73 -73 -73 -73 -73 -564 0 -686 -62 -638 825 -638 679 0
679 0 752 73 73 73 73 73 73 452 0 379 0 379 -73 452 -73 73 -75 73 -376 73
-332 0 -301 -12 -464 181 -31 37 -81 44 -314 44 -273 0 -278 -1 -350 -73z" fill="#FFFFFF"></path>
	</g>
</svg>
