<?xml version="1.0" encoding="UTF-8"?>
<svg width="36px" height="36px" viewBox="0 0 108 108" xmlns="http://www.w3.org/2000/svg">
	<g transform="translate(0.000000,108.000000) scale(0.040000,-0.040000)" stroke="none" fill="none" fill-rule="evenodd">
		<path d="M609 2063 c-8 -21 -8 -52 -1 -69 7 -17 160 -210 340 -428 l327 -397
0 -222 0 -222 -156 0 c-200 -1 -264 -19 -283 -79 l-15 -48 30 -37 30 -36 469
0 469 0 30 36 30 37 -15 48 c-19 60 -83 78 -283 79 l-156 0 0 222 0 222 337
409 338 410 -6 50 -6 50 -732 6 -732 7 -15 -38z m1241 -128 c0 -8 -53 -81
-119 -161 l-118 -146 -263 0 -262 0 -119 146 c-66 80 -119 153 -119 161 0 8
225 15 500 15 275 0 500 -7 500 -15z" fill="#FFFFFF"></path>
	</g>
</svg>
