<?xml version="1.0" encoding="UTF-8"?>
<svg width="36px" height="36px" viewBox="0 0 108 108" xmlns="http://www.w3.org/2000/svg">
	<g transform="translate(0.000000,108.000000) scale(0.040000,-0.040000)" stroke="none" fill="none" fill-rule="evenodd">
		<path d="M1164 2116 c-72 -77 -95 -86 -250 -95 -129 -9 -178 -23 -205 -58 -26
-37 -34 -170 -34 -602 0 -523 3 -558 52 -620 l52 -66 571 0 571 0 52 66 c49
62 52 97 52 636 0 561 -1 571 -56 609 -34 25 -109 39 -201 39 -135 0 -153 7
-229 88 -69 73 -100 87 -189 87 -89 0 -120 -14 -186 -84z m274 -166 c0 -83 -5
-87 -88 -87 -73 0 -89 9 -96 58 -14 99 13 133 102 124 75 -7 82 -15 82 -95z
m275 -375 l0 -62 -357 -7 c-302 -6 -359 -1 -372 31 -8 21 -8 55 0 76 13 32 70
37 372 31 l357 -6 0 -63z m0 -300 l0 -62 -357 -7 c-302 -6 -359 -1 -372 31 -8
21 -8 55 0 76 13 32 70 37 372 31 l357 -6 0 -63z m0 -300 l0 -62 -357 -7
c-302 -6 -359 -1 -372 31 -8 21 -8 55 0 76 13 32 70 37 372 31 l357 -6 0 -63z" fill="#FFFFFF"></path>
	</g>
</svg>
