<?xml version="1.0" encoding="UTF-8"?>
<svg width="36px" height="36px" viewBox="0 0 108 108" xmlns="http://www.w3.org/2000/svg">
	<g transform="translate(0.000000,108.000000) scale(0.040000,-0.040000)" stroke="none" fill="none" fill-rule="evenodd">
		<path d="M1749 2031 l-211 -143 0 -387 0 -386 211 -133 c229 -143 299 -159
376 -82 47 47 50 83 50 613 0 529 -3 565 -50 612 -78 78 -150 61 -376 -94z" fill="#FFFFFF"></path>
		<path d="M607 1762 c-87 -87 -87 -87 -78 -287 8 -178 16 -207 78 -268 67 -68
77 -70 395 -78 228 -6 336 1 362 22 47 39 53 622 6 669 -20 20 -135 30 -353
30 l-322 0 -88 -88z" fill="#FFFFFF"></path>
		<path d="M867 1008 c-34 -34 -15 -108 72 -275 107 -205 164 -258 276 -258 126
0 171 84 151 280 -9 85 -33 180 -54 212 -35 52 -57 58 -233 58 -108 0 -203 -7
-212 -17z" fill="#FFFFFF"></path>
	</g>
</svg>
