<?xml version="1.0" encoding="UTF-8"?>
<svg width="36px" height="36px" viewBox="0 0 108 108" xmlns="http://www.w3.org/2000/svg">
	<g transform="translate(0.000000,108.000000) scale(0.040000,-0.040000)" stroke="none" fill="none" fill-rule="evenodd">
		<path d="M209 1837 c-27 -71 9 -345 65 -493 89 -235 196 -372 349 -450 178
-90 297 -89 498 6 87 41 190 75 229 75 39 0 142 -34 229 -75 201 -95 320 -96
498 -6 153 78 260 215 349 450 56 148 92 422 65 493 l-15 40 -67 -44 c-49 -32
-166 -53 -430 -75 l-362 -30 -123 -77 c-67 -42 -132 -76 -144 -76 -12 0 -77
34 -144 76 l-123 77 -362 30 c-264 22 -381 43 -430 75 l-67 44 -15 -40z m896
-460 l69 -77 -29 -63 c-39 -85 -169 -162 -276 -162 -51 0 -115 22 -154 52 -66
53 -190 267 -190 329 l0 32 256 -17 256 -17 68 -77z m1093 29 c-56 -148 -149
-275 -222 -306 -44 -18 -116 -25 -168 -17 -107 18 -233 129 -233 205 0 70 76
138 180 162 45 11 169 21 276 22 l193 3 -26 -69z" fill="#FFFFFF"></path>
	</g>
</svg>
