<?xml version="1.0" encoding="UTF-8"?>
<svg width="36px" height="36px" viewBox="0 0 108 108" xmlns="http://www.w3.org/2000/svg">
	<g transform="translate(0.000000,108.000000) scale(0.040000,-0.040000)" stroke="none" fill="none" fill-rule="evenodd">
		<path d="M1863 2102 c-160 -68 -202 -274 -81 -395 152 -152 404 -47 404 168 0
165 -178 290 -323 227z" fill="#FFFFFF"></path>
		<path d="M1118 2074 c-526 -133 -754 -652 -452 -1031 97 -123 107 -220 34
-330 -27 -42 -50 -86 -50 -98 0 -40 253 7 346 64 76 46 132 57 329 61 375 7
636 140 759 387 70 140 81 230 42 332 -21 55 -34 60 -125 48 -66 -9 -142 2
-216 30 -93 36 -124 64 -162 147 -53 117 -61 245 -21 320 15 28 22 55 16 61
-24 24 -412 32 -500 9z" fill="#FFFFFF"></path>
	</g>
</svg>
