<?xml version="1.0" encoding="UTF-8"?>
<svg width="36px" height="36px" viewBox="0 0 108 108" xmlns="http://www.w3.org/2000/svg">
	<g transform="translate(0.000000,108.000000) scale(0.040000,-0.040000)" stroke="none" fill="none" fill-rule="evenodd">
		<path d="M1925 2059 c-245 -85 -1465 -618 -1509 -660 -66 -62 -37 -90 150
-148 272 -84 286 -81 711 201 438 290 448 296 448 231 0 -28 -112 -152 -276
-306 -208 -194 -275 -271 -269 -311 8 -57 530 -430 641 -458 118 -30 146 41
238 592 159 950 158 959 -134 859z" fill="#FFFFFF"></path>
	</g>
</svg>
