<?xml version="1.0" encoding="UTF-8"?>
<svg width="36px" height="36px" viewBox="0 0 108 108" xmlns="http://www.w3.org/2000/svg">
	<g transform="translate(0.000000,108.000000) scale(0.040000,-0.040000)" stroke="none" fill="none" fill-rule="evenodd">
		<path d="M858 2130 c-151 -54 -332 -194 -407 -316 -133 -216 -122 -533 25
-737 95 -131 94 -210 -2 -307 -42 -42 -70 -83 -61 -91 31 -32 280 -10 375 33
70 31 166 46 325 48 260 3 391 51 561 204 164 148 213 262 213 499 0 172 -9
215 -67 315 -84 142 -219 263 -369 330 -161 71 -428 81 -593 22z" fill="#FFFFFF"></path>
		<path d="M2035 1687 c48 -115 47 -405 0 -541 -57 -161 -299 -421 -441 -472
-52 -19 -94 -42 -94 -51 0 -47 307 -63 416 -22 56 22 81 17 138 -25 65 -48
261 -74 241 -32 -5 10 -30 61 -56 112 -48 93 -48 94 4 150 147 162 183 422 86
624 -57 117 -117 182 -240 260 -73 47 -74 47 -54 -3z" fill="#FFFFFF"></path>
	</g>
</svg>
