<?xml version="1.0" encoding="UTF-8"?>
<svg width="36px" height="36px" viewBox="0 0 108 108" xmlns="http://www.w3.org/2000/svg">
	<g transform="translate(0.000000,108.000000) scale(0.040000,-0.040000)" stroke="none" fill="none" fill-rule="evenodd">
		<path d="M819 1948 c-361 -202 -494 -290 -494 -323 0 -34 124 -110 487 -298
268 -139 502 -252 521 -252 19 0 221 90 450 200 228 110 421 200 428 200 7 0
15 -98 19 -218 7 -191 13 -220 55 -228 75 -14 89 41 90 351 l0 292 -487 277
c-268 152 -507 276 -532 276 -24 0 -266 -125 -537 -277z" fill="#FFFFFF"></path>
		<path d="M575 1129 c0 -119 10 -154 56 -196 102 -91 627 -363 707 -365 75 -3
447 189 631 325 76 56 81 70 81 208 l0 148 -328 -162 c-181 -89 -350 -162
-376 -162 -25 0 -204 79 -396 175 -192 96 -355 175 -362 175 -7 0 -13 -66 -13
-146z" fill="#FFFFFF"></path>
	</g>
</svg>
