<?xml version="1.0" encoding="UTF-8"?>
<svg width="36px" height="36px" viewBox="0 0 108 108" xmlns="http://www.w3.org/2000/svg">
	<g transform="translate(0.000000,108.000000) scale(0.040000,-0.040000)" stroke="none" fill="none" fill-rule="evenodd">
		<path d="M1587 2191 c-124 -31 -239 -64 -256 -75 l-31 -19 0 -483 0 -483 -31
-25 c-17 -13 -90 -38 -162 -55 -72 -17 -159 -53 -193 -80 -35 -27 -69 -87 -78
-135 -10 -51 -4 -118 15 -163 17 -41 63 -92 101 -112 39 -20 100 -36 136 -36
35 0 95 16 132 35 37 19 96 65 130 102 l63 67 7 460 8 461 55 13 c30 7 144 32
255 57 l200 44 0 237 0 237 -63 4 c-34 2 -164 -21 -288 -51z" fill="#FFFFFF"></path>
	</g>
</svg>
