<?xml version="1.0" encoding="UTF-8"?>
<svg width="36px" height="36px" viewBox="0 0 108 108" xmlns="http://www.w3.org/2000/svg">
	<g transform="translate(0.000000,108.000000) scale(0.040000,-0.040000)" stroke="none" fill="none" fill-rule="evenodd">
		<path d="M1113 2216 c-170 -56 -296 -132 -405 -245 -58 -60 -137 -176 -175
-258 -60 -128 -70 -182 -70 -363 0 -180 10 -236 70 -365 39 -85 122 -204 188
-268 64 -63 184 -146 267 -185 127 -59 182 -69 362 -69 180 0 235 10 363 69
82 39 202 122 266 185 66 64 149 183 188 268 60 129 70 185 70 365 0 180 -10
236 -70 365 -39 85 -122 204 -188 268 -64 63 -183 145 -265 182 -106 49 -200
71 -325 76 -103 5 -218 -5 -276 -25z m282 -271 c17 -16 30 -56 30 -87 0 -42
14 -58 52 -58 63 0 150 -45 191 -98 17 -22 31 -77 31 -122 1 -55 -20 -103 -61
-145 -35 -34 -63 -67 -63 -74 0 -6 16 -11 36 -11 59 0 139 -125 139 -218 0
-62 -21 -106 -73 -159 -40 -40 -99 -73 -131 -73 -32 -1 -71 -9 -87 -19 -15
-10 -32 -41 -38 -68 -6 -35 -29 -50 -71 -50 -46 0 -65 15 -70 56 -7 42 -25 56
-77 56 -38 0 -88 14 -111 31 -38 28 -42 79 -36 457 l7 425 106 7 106 8 0 69
c0 38 8 77 17 86 25 26 70 20 103 -13z" fill="#FFFFFF"></path>
		<path d="M1225 1550 l0 -125 121 0 c86 0 133 13 163 46 22 25 41 62 41 83 0
21 -21 57 -46 80 -29 26 -89 41 -162 41 l-117 0 0 -125z" fill="#FFFFFF"></path>
		<path d="M1225 1163 l0 -138 127 0 c69 0 148 12 175 26 68 36 64 160 -8 210
-31 22 -107 39 -175 39 l-119 0 0 -137z" fill="#FFFFFF"></path>
	</g>
</svg>
