<?xml version="1.0" encoding="UTF-8"?>
<svg width="36px" height="36px" viewBox="0 0 108 108" xmlns="http://www.w3.org/2000/svg">
	<g transform="translate(0.000000,108.000000) scale(0.040000,-0.040000)" stroke="none" fill="none" fill-rule="evenodd">
		<path d="M1113 2215 c-161 -51 -268 -113 -384 -224 -103 -99 -179 -210 -179
-263 0 -13 56 -42 123 -65 l124 -41 226 170 227 169 0 145 c0 79 -8 143 -19
142 -10 -1 -63 -16 -118 -33z" fill="#FFFFFF"></path>
		<path d="M1425 2106 l0 -148 231 -164 230 -164 126 50 c69 27 129 53 134 57
19 20 -76 159 -175 255 -109 106 -314 214 -465 245 l-81 17 0 -148z" fill="#FFFFFF"></path>
		<path d="M1107 1687 c-99 -76 -192 -159 -206 -185 -19 -36 -9 -104 41 -269 37
-121 84 -240 104 -264 l37 -44 255 0 256 0 30 36 c47 57 176 419 176 496 l0
69 -204 149 c-113 83 -228 150 -257 150 -28 -1 -133 -63 -232 -138z" fill="#FFFFFF"></path>
		<path d="M2094 1510 c-66 -34 -119 -74 -119 -89 0 -16 -41 -140 -92 -276 l-92
-248 91 -91 91 -91 61 57 c34 31 92 126 130 210 44 98 72 212 79 317 7 90 2
188 -9 217 l-21 54 -119 -60z" fill="#FFFFFF"></path>
		<path d="M459 1484 c-28 -112 9 -349 78 -504 38 -83 93 -174 123 -203 l55 -52
81 83 80 83 -94 282 -94 282 -107 46 -106 46 -16 -63z" fill="#FFFFFF"></path>
		<path d="M941 689 c-36 -34 -66 -72 -66 -85 0 -12 59 -49 131 -82 l132 -58
212 -1 213 0 137 64 138 64 -80 80 -79 79 -336 0 -336 0 -66 -61z" fill="#FFFFFF"></path>
	</g>
</svg>
