<?xml version="1.0" encoding="UTF-8"?>
<svg width="36px" height="36px" viewBox="0 0 108 108" xmlns="http://www.w3.org/2000/svg">
	<g transform="translate(0.000000,108.000000) scale(0.040000,-0.040000)" stroke="none" fill="none" fill-rule="evenodd">
		<path d="M1088 2140 c-109 -48 -165 -122 -181 -238 -14 -102 -14 -102 -162
-102 -131 0 -158 -9 -222 -73 -69 -69 -73 -84 -73 -288 0 -304 13 -314 388
-314 287 0 287 0 287 63 0 103 82 162 225 162 143 0 225 -59 225 -162 0 -63 0
-63 288 -63 374 0 387 10 387 314 0 204 -4 219 -73 288 -66 66 -89 73 -238 73
-164 0 -164 0 -164 76 0 112 -61 212 -159 258 -106 50 -420 54 -528 6z m523
-171 c21 -30 39 -81 39 -112 0 -56 -4 -57 -312 -57 -337 0 -351 6 -284 133 44
84 68 91 301 92 196 0 221 -5 256 -56z" fill="#FFFFFF"></path>
		<path d="M525 823 c0 -135 8 -160 73 -225 73 -73 73 -73 752 -73 679 0 679 0
752 73 65 65 73 90 73 225 0 152 0 152 -300 152 -183 0 -300 -10 -300 -25 0
-68 -103 -125 -225 -125 -122 0 -225 57 -225 125 0 15 -117 25 -300 25 -300 0
-300 0 -300 -152z" fill="#FFFFFF"></path>
	</g>
</svg>
