<?xml version="1.0" encoding="UTF-8"?>
<svg width="36px" height="36px" viewBox="0 0 108 108" xmlns="http://www.w3.org/2000/svg">
	<g transform="translate(0.000000,108.000000) scale(0.040000,-0.040000)" stroke="none" fill="none" fill-rule="evenodd">
		<path d="M1250 2200 c-27 -27 -50 -77 -50 -109 0 -45 -17 -63 -69 -74 -103
-21 -244 -152 -309 -285 -47 -97 -59 -172 -68 -411 -10 -284 -12 -295 -82
-361 -77 -74 -90 -132 -42 -180 43 -43 1397 -43 1440 0 48 48 35 106 -42 180
-70 66 -72 77 -82 361 -9 239 -21 314 -68 411 -65 133 -206 264 -309 285 -52
11 -69 29 -69 74 0 72 -82 159 -150 159 -27 0 -72 -22 -100 -50z" fill="#FFFFFF"></path>
		<path d="M1150 561 c0 -58 138 -186 200 -186 62 0 200 128 200 186 0 32 -35
39 -200 39 -165 0 -200 -7 -200 -39z" fill="#FFFFFF"></path>
	</g>
</svg>
