<?xml version="1.0" encoding="UTF-8"?>
<svg width="36px" height="36px" viewBox="0 0 108 108" xmlns="http://www.w3.org/2000/svg">
	<g transform="translate(0.000000,108.000000) scale(0.040000,-0.040000)" stroke="none" fill="none" fill-rule="evenodd">
		<path d="M2038 2221 c-28 -16 -137 -112 -243 -214 l-193 -186 -495 18 -494 17
-59 -63 c-71 -77 -83 -69 309 -213 151 -56 294 -109 318 -118 37 -15 27 -38
-73 -165 -167 -213 -161 -210 -329 -163 -181 51 -227 51 -246 1 -11 -28 76
-131 294 -350 171 -170 318 -310 328 -310 10 0 30 21 43 47 18 33 12 93 -22
213 l-48 166 174 140 c96 78 178 136 183 131 4 -5 62 -156 128 -334 66 -179
130 -337 143 -350 14 -17 45 1 86 48 59 67 62 86 48 237 -8 91 -16 309 -18
486 l-2 322 175 178 c96 98 187 203 202 233 37 72 36 190 -2 228 -37 37 -141
38 -207 1z" fill="#FFFFFF"></path>
	</g>
</svg>
