<?xml version="1.0" encoding="UTF-8"?>
<svg width="36px" height="36px" viewBox="0 0 108 108" xmlns="http://www.w3.org/2000/svg">
	<g transform="translate(0.000000,108.000000) scale(0.040000,-0.040000)" stroke="none" fill="none" fill-rule="evenodd">
		<path d="M860 2001 c-28 -12 -82 -57 -118 -101 -121 -143 -76 -405 82 -487
165 -85 345 -19 417 153 45 108 43 170 -8 277 -70 147 -231 215 -373 158z" fill="#FFFFFF"></path>
		<path d="M1660 1840 c-73 -73 -85 -102 -85 -202 0 -101 12 -130 85 -203 133
-133 317 -99 399 74 50 105 51 144 5 253 -72 173 -271 211 -404 78z" fill="#FFFFFF"></path>
		<path d="M1775 1232 c-105 -13 -250 -58 -250 -79 0 -10 28 -45 62 -77 80 -76
149 -256 128 -337 l-16 -64 308 0 c335 0 368 12 368 131 0 126 -120 291 -268
367 -71 36 -250 68 -332 59z" fill="#FFFFFF"></path>
		<path d="M631 1150 c-176 -89 -281 -215 -281 -338 0 -134 13 -137 613 -137
625 0 657 8 628 150 -23 116 -122 237 -259 317 -96 56 -153 70 -330 78 -201 8
-225 4 -371 -70z" fill="#FFFFFF"></path>
	</g>
</svg>
