<?xml version="1.0" encoding="UTF-8"?>
<svg width="36px" height="36px" viewBox="0 0 108 108" xmlns="http://www.w3.org/2000/svg">
	<g transform="translate(0.000000,108.000000) scale(0.040000,-0.040000)" stroke="none" fill="none" fill-rule="evenodd">
		<path d="M1695 1956 c-348 -265 -483 -377 -469 -388 7 -4 59 -38 117 -75 63
-41 135 -118 177 -193 l71 -124 202 268 c267 358 382 534 382 587 0 58 -88
144 -147 144 -25 0 -176 -98 -333 -219z" fill="#FFFFFF"></path>
		<path d="M1081 1444 c-13 -17 -37 -56 -53 -87 l-29 -55 99 -51 c64 -32 124
-92 166 -163 36 -62 74 -113 85 -113 11 0 50 24 87 53 l68 54 -17 65 c-9 36
-44 103 -79 149 -70 91 -197 179 -261 179 -23 0 -52 -14 -66 -31z" fill="#FFFFFF"></path>
		<path d="M850 1183 c-76 -29 -150 -118 -165 -200 -17 -88 -90 -158 -166 -158
-73 0 -81 -71 -16 -142 33 -36 105 -85 160 -111 55 -25 136 -46 182 -46 45 -1
118 14 162 33 124 53 197 148 211 275 l13 113 -52 83 c-28 45 -72 95 -97 111
-61 37 -185 59 -232 42z" fill="#FFFFFF"></path>
	</g>
</svg>
