<?xml version="1.0" encoding="UTF-8"?>
<svg width="36px" height="36px" viewBox="0 0 108 108" xmlns="http://www.w3.org/2000/svg">
	<g transform="translate(0.000000,108.000000) scale(0.040000,-0.040000)" stroke="none" fill="none" fill-rule="evenodd">
		<path d="M1125 2153 c-177 -58 -304 -164 -391 -328 -39 -74 -48 -157 -55 -529
-9 -494 6 -557 153 -647 72 -44 128 -49 518 -49 390 0 446 5 518 49 147 90
162 153 153 647 -9 477 -22 531 -168 688 -114 123 -244 174 -465 182 -110 4
-229 -2 -263 -13z m384 -155 c126 -35 296 -206 335 -338 17 -57 31 -156 31
-220 0 -91 -14 -131 -61 -179 -60 -60 -70 -61 -464 -61 -394 0 -404 1 -464 61
-48 49 -61 88 -61 182 0 179 44 302 146 411 95 102 238 168 367 170 41 0 118
-11 171 -26z" fill="#FFFFFF"></path>
		<path d="M1061 1666 c-8 -20 -11 -69 -7 -108 7 -56 21 -70 71 -70 56 0 63 10
63 100 0 84 -9 101 -57 108 -33 4 -62 -8 -70 -30z" fill="#FFFFFF"></path>
		<path d="M1511 1666 c-8 -20 -11 -69 -7 -108 7 -56 21 -70 71 -70 56 0 63 10
63 100 0 84 -9 101 -57 108 -33 4 -62 -8 -70 -30z" fill="#FFFFFF"></path>
		<path d="M386 1469 c-7 -19 -10 -152 -6 -296 7 -259 8 -260 70 -260 l63 0 0
287 c0 279 -2 288 -57 296 -31 4 -62 -8 -70 -27z" fill="#FFFFFF"></path>
		<path d="M2186 1469 c-7 -19 -10 -152 -6 -296 7 -259 8 -260 70 -260 l63 0 0
287 c0 279 -2 288 -57 296 -31 4 -62 -8 -70 -27z" fill="#FFFFFF"></path>
	</g>
</svg>
