<?xml version="1.0" encoding="UTF-8"?>
<svg width="36px" height="36px" viewBox="0 0 108 108" xmlns="http://www.w3.org/2000/svg">
	<g transform="translate(0.000000,108.000000) scale(0.040000,-0.040000)" stroke="none" fill="none" fill-rule="evenodd">
		<path d="M1107 2215 c-259 -84 -463 -265 -579 -512 -55 -117 -65 -176 -65
-354 0 -189 8 -231 81 -378 96 -195 253 -349 452 -442 118 -56 176 -66 354
-66 178 0 236 10 354 66 199 93 356 247 452 442 73 148 82 189 82 379 0 190
-9 231 -82 379 -151 307 -435 497 -767 512 -105 5 -219 -5 -282 -26z m391
-401 c83 -44 152 -176 152 -293 0 -157 -154 -321 -300 -321 -146 0 -300 164
-300 321 0 114 68 248 147 291 85 47 213 47 301 2z m134 -814 c74 -28 162 -80
195 -115 l61 -65 -86 -72 c-112 -94 -278 -148 -452 -148 -174 0 -340 54 -452
148 l-85 72 60 65 c145 155 505 210 759 115z" fill="#FFFFFF"></path>
	</g>
</svg>
