<?xml version="1.0" encoding="UTF-8"?>
<svg width="36px" height="36px" viewBox="0 0 108 108" xmlns="http://www.w3.org/2000/svg">
	<g transform="translate(0.000000,108.000000) scale(0.040000,-0.040000)" stroke="none" fill="none" fill-rule="evenodd">
		<path d="M635 2052 c-214 -97 -210 -84 -210 -755 0 -403 9 -599 27 -611 15 -9
91 15 168 54 182 92 374 98 513 16 52 -31 105 -56 118 -56 15 0 24 246 24 613
0 587 -2 614 -52 664 -126 126 -399 161 -588 75z" fill="#FFFFFF"></path>
		<path d="M1608 2064 c-43 -19 -102 -58 -131 -87 -50 -50 -52 -77 -52 -664 0
-367 9 -613 24 -613 13 0 66 25 118 56 139 82 331 76 513 -16 77 -39 153 -63
168 -54 18 12 27 208 27 611 0 572 -2 596 -54 651 -127 137 -431 195 -613 116z" fill="#FFFFFF"></path>
	</g>
</svg>
