<?xml version="1.0" encoding="UTF-8"?>
<svg width="36px" height="36px" viewBox="0 0 108 108" xmlns="http://www.w3.org/2000/svg">
	<g transform="translate(0.000000,108.000000) scale(0.040000,-0.040000)" stroke="none" fill="none" fill-rule="evenodd">
		<path d="M1769 2092 l-269 -75 0 -33 c0 -19 50 -65 111 -103 l111 -69 -214
-331 -214 -332 -116 68 c-64 37 -144 84 -179 104 l-64 37 -68 -17 -67 -17
-187 -281 c-104 -154 -188 -305 -188 -336 0 -62 76 -115 134 -93 20 8 107 121
192 250 86 130 167 236 180 236 14 0 90 -39 169 -87 l144 -88 79 0 78 0 183
281 c100 155 213 330 250 388 l67 107 93 -63 c51 -35 107 -63 124 -63 18 0 32
25 32 56 0 100 -72 501 -92 518 -11 10 -141 -16 -289 -57z" fill="#FFFFFF"></path>
		<path d="M1936 1468 c-7 -18 -9 -218 -5 -444 l7 -411 73 -9 74 -8 33 44 32 45
0 339 c-1 186 -9 350 -19 365 -24 34 -136 111 -162 111 -11 0 -26 -14 -33 -32z" fill="#FFFFFF"></path>
		<path d="M1720 1206 c-21 -24 -68 -96 -105 -160 l-68 -117 8 -143 8 -143 39
-25 c22 -14 70 -18 107 -9 l66 17 0 312 c0 172 -4 312 -9 312 -4 0 -25 -20
-46 -44z" fill="#FFFFFF"></path>
		<path d="M901 883 l-53 -68 7 -101 8 -101 87 0 88 0 7 142 7 142 -49 26 -49
27 -53 -67z" fill="#FFFFFF"></path>
		<path d="M1210 802 c-22 -22 -8 -144 20 -172 41 -41 132 -38 169 6 16 20 26
66 22 104 l-8 68 -96 2 c-53 1 -101 -2 -107 -8z" fill="#FFFFFF"></path>
	</g>
</svg>
