<?xml version="1.0" encoding="UTF-8"?>
<svg width="36px" height="36px" viewBox="0 0 108 108" xmlns="http://www.w3.org/2000/svg">
	<g transform="translate(0.000000,108.000000) scale(0.040000,-0.040000)" stroke="none" fill="none" fill-rule="evenodd">
		<path d="M1215 2156 c-35 -93 -79 -213 -98 -268 -47 -138 -108 -162 -410 -163
-229 0 -258 -5 -282 -50 -39 -73 -5 -118 223 -287 111 -83 208 -170 216 -195
8 -24 -20 -157 -63 -295 -128 -411 -69 -455 287 -212 132 90 249 164 260 164
11 0 130 -73 264 -163 133 -89 252 -162 264 -162 29 0 99 73 99 104 0 14 -35
137 -77 273 -42 136 -70 267 -62 291 8 25 105 112 216 195 228 169 262 214
223 287 -24 45 -53 50 -282 50 -302 1 -363 25 -410 163 -19 55 -63 175 -98
268 -59 154 -71 169 -135 169 -64 0 -76 -15 -135 -169z" fill="#FFFFFF"></path>
	</g>
</svg>
