<?xml version="1.0" encoding="UTF-8"?>
<svg width="36px" height="36px" viewBox="0 0 108 108" xmlns="http://www.w3.org/2000/svg">
	<g transform="translate(0.000000,108.000000) scale(0.040000,-0.040000)" stroke="none" fill="none" fill-rule="evenodd">
		<path d="M1205 2263 c-41 -35 -82 -91 -90 -125 -13 -52 -24 -58 -73 -40 -141
54 -302 -58 -302 -210 0 -57 21 -109 59 -150 l60 -63 -60 -63 c-38 -41 -59
-93 -59 -149 0 -153 161 -265 302 -211 49 18 60 12 73 -40 20 -82 148 -187
226 -187 105 0 203 68 233 161 27 79 35 85 92 63 210 -80 390 198 235 363
l-60 63 60 63 c78 84 79 214 2 297 -71 74 -154 98 -237 66 -57 -22 -65 -16
-92 63 -30 93 -128 161 -233 161 -34 0 -96 -28 -136 -62z m270 -463 c64 -64
64 -151 -1 -220 -65 -70 -167 -70 -241 -1 -72 67 -74 144 -7 216 64 69 182 72
249 5z" fill="#FFFFFF"></path>
		<path d="M525 1162 c-74 -88 45 -380 220 -541 60 -55 173 -130 251 -167 118
-56 176 -66 355 -66 190 0 230 8 379 82 199 97 373 278 430 447 50 146 51 218
3 258 -86 71 -389 -50 -564 -224 -116 -116 -224 -310 -224 -402 0 -77 -41 -38
-60 57 -24 122 -175 332 -309 431 -112 83 -313 163 -407 163 -24 0 -57 -17
-74 -38z" fill="#FFFFFF"></path>
	</g>
</svg>
