<?xml version="1.0" encoding="UTF-8"?>
<svg width="36px" height="36px" viewBox="0 0 108 108" xmlns="http://www.w3.org/2000/svg">
	<g transform="translate(0.000000,108.000000) scale(0.040000,-0.040000)" stroke="none" fill="none" fill-rule="evenodd">
		<path d="M1235 2194 c-42 -31 -253 -207 -469 -390 -390 -331 -448 -406 -327
-424 34 -5 180 103 462 343 226 192 428 350 449 350 21 0 223 -157 449 -349
226 -192 432 -349 457 -349 25 0 53 19 62 42 11 30 -21 75 -113 156 l-128 115
-7 187 -7 188 -100 0 c-99 0 -101 -2 -108 -98 l-8 -97 -80 75 c-161 152 -370
307 -413 307 -24 0 -78 -25 -119 -56z" fill="#FFFFFF"></path>
		<path d="M969 1630 l-343 -292 0 -345 c-1 -334 1 -347 60 -407 l62 -61 602 0
602 0 62 61 c59 60 61 74 61 407 l0 345 -350 293 c-192 162 -363 293 -381 292
-17 0 -186 -133 -375 -293z m576 -661 l7 -294 -201 0 -201 0 0 283 c0 156 8
292 18 301 9 10 97 15 193 11 l177 -7 7 -294z" fill="#FFFFFF"></path>
	</g>
</svg>
