<?xml version="1.0" encoding="UTF-8"?>
<svg width="36px" height="36px" viewBox="0 0 108 108" xmlns="http://www.w3.org/2000/svg">
	<g transform="translate(0.000000,108.000000) scale(0.040000,-0.040000)" stroke="none" fill="none" fill-rule="evenodd">
		<path d="M755 1983 c-148 -73 -181 -151 -245 -579 -33 -215 -59 -435 -60 -487
0 -73 18 -113 73 -169 54 -54 97 -73 164 -73 l92 0 144 138 144 137 283 0 283
0 144 -137 144 -138 92 0 c67 0 110 19 164 73 55 56 73 96 73 169 -1 52 -27
272 -60 487 -64 430 -98 509 -250 580 l-85 41 -509 -1 -508 0 -83 -41z m345
-335 l13 -85 87 -13 c56 -8 88 -26 88 -50 0 -24 -32 -42 -88 -50 l-87 -12 -13
-88 c-8 -56 -26 -87 -50 -87 -24 0 -42 31 -50 87 l-12 88 -88 12 c-56 8 -87
26 -87 50 0 24 31 42 87 50 l88 13 7 62 c12 99 28 130 61 119 17 -6 37 -49 44
-96z m586 38 c21 -22 39 -55 39 -73 0 -19 -18 -52 -39 -74 -22 -21 -55 -39
-73 -39 -19 0 -52 18 -74 39 -21 22 -39 55 -39 74 0 43 69 112 113 112 18 0
51 -18 73 -39z m225 -225 c21 -22 39 -55 39 -73 0 -19 -18 -52 -39 -74 -22
-21 -55 -39 -73 -39 -44 0 -113 69 -113 113 0 43 69 112 113 112 18 0 51 -18
73 -39z" fill="#FFFFFF"></path>
	</g>
</svg>
