<?xml version="1.0" encoding="UTF-8"?>
<svg width="36px" height="36px" viewBox="0 0 108 108" xmlns="http://www.w3.org/2000/svg">
	<g transform="translate(0.000000,108.000000) scale(0.040000,-0.040000)" stroke="none" fill="none" fill-rule="evenodd">
		<path d="M1248 2143 c-102 -78 -114 -201 -31 -297 33 -37 21 -64 -106 -256
-90 -134 -153 -207 -171 -196 -216 138 -238 161 -223 233 11 57 -2 86 -65 150
-64 64 -91 75 -146 61 -108 -27 -156 -85 -156 -190 0 -72 16 -107 66 -146 36
-29 79 -52 96 -52 16 0 43 -60 60 -133 16 -74 41 -175 55 -225 l25 -92 698 0
698 0 25 92 c14 50 39 151 55 225 17 73 44 133 60 133 17 0 60 23 96 52 50 39
66 74 66 146 0 105 -48 163 -156 190 -55 14 -82 3 -146 -61 -63 -63 -76 -93
-65 -150 13 -61 1 -80 -91 -144 -57 -41 -117 -82 -132 -91 -17 -9 -87 72 -171
198 -127 192 -139 219 -106 256 114 130 34 327 -133 327 -34 0 -80 -13 -102
-30z" fill="#FFFFFF"></path>
		<path d="M685 860 c8 -21 15 -56 15 -76 0 -21 33 -71 73 -111 l73 -73 497 0
c418 0 505 6 554 41 54 37 128 173 128 233 0 17 -228 26 -678 26 -607 0 -676
-4 -662 -40z" fill="#FFFFFF"></path>
	</g>
</svg>
