<svg width="36px" height="36px" viewBox="0 0 36 36" xmlns="http://www.w3.org/2000/svg" fill="none" stroke="#FFFFFF" stroke-width="2" stroke-linecap="round" stroke-linejoin="round"><path d="M26.07 16.06 28.92 16.71 28.92 19.29 26.07 19.94 25.08 22.34 26.64 24.81 24.81 26.64 22.34 25.08 19.94 26.07 19.29 28.92 16.71 28.92 16.06 26.07 13.66 25.08 11.19 26.64 9.36 24.81 10.92 22.34 9.93 19.94 7.08 19.29 7.08 16.71 9.93 16.06 10.92 13.66 9.36 11.19 11.19 9.36 13.66 10.92 16.06 9.93 16.71 7.08 19.29 7.08 19.94 9.93 22.34 10.92 24.81 9.36 26.64 11.19 25.08 13.66Z"/><circle cx="18" cy="18" r="3.6"/></svg>