<svg width="16" height="16" viewBox="0 0 16 16" fill="none" xmlns="http://www.w3.org/2000/svg">
<path d="M13.6618 1.03405C14.5315 0.815084 15.271 1.69273 14.9034 2.50779L9.55487 14.3686C9.11049 15.3541 7.64625 15.1354 7.51158 14.0635L6.73076 7.8488C6.67381 7.39552 6.33385 7.02843 5.8848 6.93535L1.85428 6.09986C0.739706 5.86882 0.706225 4.29564 1.80997 4.01777L13.6618 1.03405Z" fill="white"/>
<path d="M2.5 15C3.88071 15 5 13.8807 5 12.5C5 11.1193 3.88071 10 2.5 10C1.11929 10 0 11.1193 0 12.5C0 13.8807 1.11929 15 2.5 15Z" fill="#888888"/>
</svg>
