<svg width="16" height="16" viewBox="0 0 16 16" fill="none" xmlns="http://www.w3.org/2000/svg">
<g clip-path="url(#clip0_2305_59)">
<path opacity="0.5" d="M13.2529 2.49763C14.0922 2.30414 14.8016 3.12529 14.4347 3.86538L9.78535 13.2416C9.46611 13.8855 8.54512 13.9873 8.0652 13.4318L2.08211 6.50691C1.60219 5.95144 1.89046 5.11732 2.62053 4.949L13.2529 2.49763Z" fill="white"/>
<path d="M13.2528 0.862836C14.092 0.669343 14.8015 1.49049 14.4345 2.23058L9.78522 11.6069C9.46598 12.2507 8.545 12.3525 8.06508 11.797L2.08199 4.87211C1.60206 4.31664 1.89034 3.48252 2.6204 3.3142L13.2528 0.862836Z" fill="white"/>
<path d="M2 14C3.10457 14 4 13.1046 4 12C4 10.8954 3.10457 10 2 10C0.895431 10 0 10.8954 0 12C0 13.1046 0.895431 14 2 14Z" fill="#F23C34"/>
</g>
<defs>
<clipPath id="clip0_2305_59">
<rect width="16" height="16" fill="white"/>
</clipPath>
</defs>
</svg>
