<svg version="1.2" xmlns="http://www.w3.org/2000/svg" viewBox="0 0 24 24" width="24" height="24"><style>.a{fill:#fff}</style><path class="a" d="m3 21v-3.2l14.4-14.4q0.2-0.2 0.5-0.3 0.2-0.1 0.5-0.1 0.3 0 0.6 0.1 0.3 0.1 0.5 0.3l1.1 1.1q0.2 0.3 0.3 0.5 0.1 0.3 0.1 0.6 0 0.3-0.1 0.5-0.1 0.3-0.3 0.5l-14.4 14.4zm1.5-1.5h1.1l11.8-11.8-1.1-1.1-11.8 11.8zm15-13.9l-1-1.1zm-2.7 1.6l-0.5-0.5 1.1 1.1z"/><path fill-rule="evenodd" class="a" d="m4.5 7.4l0.7 1.5 1.5 0.7-1.5 0.7-0.7 1.5-0.7-1.5-1.5-0.7 1.5-0.7z"/><path fill-rule="evenodd" class="a" d="m9.3 2.5l0.7 1.2 1.2 0.7-1.2 0.7-0.7 1.3-0.7-1.3-1.3-0.7 1.3-0.7z"/><path fill-rule="evenodd" class="a" d="m17.7 16.3l0.7 1.5 1.5 0.7-1.5 0.7-0.7 1.5-0.7-1.5-1.5-0.7 1.5-0.7z"/></svg>