<svg version="1.2" xmlns="http://www.w3.org/2000/svg" viewBox="0 0 24 24" width="24" height="24"><style>.a{fill:#fff}</style><path class="a" d="m10.6 17.2q-2.7 0-4.7-1.9-1.9-2-1.9-4.7 0-2.8 1.9-4.7 2-1.9 4.7-1.9 2.7 0 4.7 1.9 1.9 2 1.9 4.7 0 1.2-0.4 2.3-0.4 1-1.1 1.9l4.8 4.8-0.9 0.9-4.8-4.8q-0.9 0.7-1.9 1.1-1.1 0.4-2.3 0.4zm3.8-2.8q1.5-1.6 1.5-3.8 0-2.2-1.5-3.8-1.6-1.6-3.8-1.6-2.2 0-3.8 1.6-1.6 1.6-1.6 3.8 0 2.2 1.6 3.8 1.6 1.5 3.8 1.5 2.2 0 3.8-1.5zm-4.7-1.1l4.3-4.3-0.9-0.9-3.4 3.4-1.8-1.8-0.9 0.9z"/></svg>