<svg version="1.2" xmlns="http://www.w3.org/2000/svg" viewBox="0 0 72 72" width="72" height="72"><style>.a{fill:#fff}</style><path class="a" d="m18.6 50.1q-7.8-5.5-11.6-14.3 3.8-8.9 11.6-14.3 7.8-5.5 17.4-5.5 9.6 0 17.4 5.5 7.8 5.4 11.6 14.3-3.8 8.8-11.6 14.3-7.8 5.4-17.4 5.4-9.6 0-17.4-5.4zm25.3-6.4q3.3-3.2 3.3-7.9 0-4.7-3.3-8-3.2-3.2-7.9-3.2-4.7 0-7.9 3.2-3.3 3.3-3.3 8 0 4.7 3.3 7.9 3.2 3.3 7.9 3.3 4.7 0 7.9-3.3zm-13.1-2.7q-2.2-2.1-2.2-5.2 0-3.1 2.2-5.3 2.1-2.1 5.2-2.1 3.1 0 5.2 2.1 2.2 2.2 2.2 5.3 0 3.1-2.2 5.2-2.1 2.2-5.2 2.2-3.1 0-5.2-2.2z"/></svg>