<svg version="1.2" xmlns="http://www.w3.org/2000/svg" viewBox="0 0 72 72" width="72" height="72"><style>.a{fill:#fff}</style><path class="a" d="m36 58.2q-9.2 0-15.9-6.6-6.7-6.7-6.7-16v-3.2l-5.6 5.7-2.8-2.8 10.5-10.5 10.6 10.5-2.8 2.8-5.6-5.7v3.2q0 7.6 5.4 13 5.4 5.4 12.9 5.4 2.1 0 3.9-0.4 1.9-0.3 3.5-1l3 3q-2.5 1.4-5.1 2-2.6 0.6-5.3 0.6zm20.5-11.9l-10.6-10.5 2.9-2.9 5.5 5.6v-2.9q0-7.5-5.4-13-5.4-5.4-12.9-5.4-2.1 0-3.9 0.4-1.9 0.4-3.5 1l-3-3.1q2.5-1.4 5.1-1.9 2.6-0.6 5.3-0.6 9.2 0 15.9 6.7 6.7 6.7 6.7 15.9v3.1l5.6-5.7 2.8 2.8z"/></svg>