<svg version="1.2" xmlns="http://www.w3.org/2000/svg" viewBox="0 0 72 72" width="72" height="72"><style>.a{fill:#fff}</style><path class="a" d="m25.1 61.8q-5.1-2.2-8.9-6-3.8-3.8-6-8.9-2.2-5.1-2.2-10.9 0-5.8 2.2-10.9 2.2-5.1 6-8.9 3.8-3.8 8.9-6 5.1-2.2 10.9-2.2 5.8 0 10.9 2.2 5.1 2.2 8.9 6 3.8 3.8 6 8.9 2.2 5.1 2.2 10.9 0 5.8-2.2 10.9-2.2 5.1-6 8.9-3.8 3.8-8.9 6-5.1 2.2-10.9 2.2-5.8 0-10.9-2.2zm27.8-8.9q6.9-7 6.9-16.9 0-9.9-6.9-16.9-7-6.9-16.9-6.9-9.9 0-16.9 6.9-6.9 7-6.9 16.9 0 9.9 6.9 16.9 7 6.9 16.9 6.9 9.9 0 16.9-6.9zm-8.4-4.1q3.9-2.4 5.6-6.7h-28.2q1.8 4.3 5.6 6.7 3.9 2.5 8.5 2.5 4.6 0 8.5-2.5zm1.7-16.5q1.6 0 2.7-1.1 1.1-1.1 1.1-2.7 0-1.6-1.1-2.7-1.1-1.1-2.7-1.1-1.6 0-2.7 1.1-1.1 1.1-1.1 2.7 0 1.6 1.1 2.7 1.1 1.1 2.7 1.1zm-20.4 0q1.6 0 2.7-1.1 1.1-1.1 1.1-2.7 0-1.6-1.1-2.7-1.1-1.1-2.7-1.1-1.6 0-2.7 1.1-1.1 1.1-1.1 2.7 0 1.6 1.1 2.7 1.1 1.1 2.7 1.1z"/></svg>