<svg version="1.2" xmlns="http://www.w3.org/2000/svg" viewBox="0 0 72 72" width="72" height="72"><style>.a{fill:#fff}</style><path class="a" d="m26 52.2q-6.7 0-11.4-4.7-4.6-4.7-4.6-11.4 0-6.7 4.6-11.4 4.7-4.7 11.4-4.7h24.7q4.7 0 8 3.3 3.3 3.4 3.3 8.1 0 4.7-3.3 8-3.3 3.3-8 3.3l-23.4 0.1q-2.7 0-4.7-2-1.9-1.9-1.9-4.7 0-2.8 1.9-4.7 1.9-2 4.7-2h24v3.9h-24q-1.1 0-1.9 0.8-0.8 0.9-0.8 2 0 1.2 0.8 2 0.8 0.8 1.9 0.8l23.4-0.1q3.1 0 5.3-2.1 2.1-2.2 2.1-5.3 0-3.2-2.1-5.3-2.2-2.2-5.3-2.2h-24.7q-5.1 0-8.6 3.6-3.5 3.5-3.5 8.6 0 5.1 3.5 8.6 3.5 3.6 8.6 3.6h25.3v3.9z"/></svg>