<svg version="1.2" xmlns="http://www.w3.org/2000/svg" viewBox="0 0 72 72" width="72" height="72"><style>.a{fill:#fff}</style><path class="a" d="m35.8 63.5q-5.8 0-10.8-2.2-5.1-2.1-8.9-5.9-3.8-3.8-5.9-8.9-2.2-5-2.2-10.8 0-5.7 2.2-10.8 2.1-5 5.9-8.8 3.8-3.8 8.9-5.9 5-2.2 10.8-2.2 5.7 0 10.8 2.2 5 2.1 8.8 5.9 3.8 3.8 5.9 8.8 2.2 5.1 2.2 10.9v4.3q0 4-2.8 6.7-2.8 2.8-6.7 2.8-2.5 0-4.6-1.2-2-1.2-3.5-3.3-2 2.1-4.6 3.3-2.7 1.2-5.5 1.2-5.8 0-9.9-4-4-4.1-4-9.9 0-5.7 4-9.8 4.1-4 9.9-4 5.7 0 9.8 4 4 4.1 4 9.8v4.4q0 1.8 1.3 3.1 1.3 1.2 3.1 1.2 1.8 0 3-1.2 1.3-1.3 1.3-3.1v-4.4q0-9.3-6.6-15.9-6.6-6.6-16-6.6-9.3 0-15.9 6.6-6.6 6.6-6.6 15.9 0 9.4 6.6 16 6.6 6.6 15.9 6.6h13.9v5.2zm6.2-21.6q2.5-2.5 2.5-6.2 0-3.6-2.5-6.1-2.6-2.5-6.2-2.5-3.6 0-6.1 2.5-2.5 2.5-2.5 6.1 0 3.7 2.5 6.2 2.5 2.5 6.1 2.5 3.6 0 6.2-2.5z"/></svg>